<svg width="127" height="108" viewBox="0 0 127 108" fill="none" xmlns="http://www.w3.org/2000/svg">
<path d="M27.867 43.9404C32.8019 31.2238 46.8548 22.0909 63.5 22.0909C72.4477 22.0909 80.5296 24.7909 86.8796 29.2091L105.352 13.5C94.0955 5.15455 79.6636 0 63.5 0C38.4708 0 16.9214 12.1423 6.56161 29.9251L27.867 43.9404Z" fill="#FEE9E8"/>
<path d="M84.8822 81.0563C79.1153 84.223 71.7872 85.9087 63.5 85.9087C46.9185 85.9087 32.9095 76.8456 27.924 64.2051L6.54823 78.0071C16.8952 95.821 38.444 108 63.5 108C79.0196 108 93.8495 103.308 104.956 94.4977L84.8822 81.0563Z" fill="#D0FFDD"/>
<path d="M104.956 94.4979C116.571 85.2843 124.114 71.5663 124.114 53.9998C124.114 50.8089 123.536 47.3725 122.67 44.1816H63.5V65.0453H97.5591C95.8785 72.0611 91.3675 77.4953 84.8822 81.0565L104.956 94.4979Z" fill="#DAEBFF"/>
<path d="M27.924 64.2051C26.6611 61.0031 25.9773 57.5716 25.9773 53.9997C25.9773 50.4819 26.6406 47.1003 27.867 43.9401L6.56162 29.9248C2.31027 37.1716 0 45.3389 0 53.9997C0 62.6377 2.35363 70.7855 6.54824 78.0071L27.924 64.2051Z" fill="#FFFEFB"/>
</svg>
