<svg width="76" height="92" viewBox="0 0 76 92" fill="none" xmlns="http://www.w3.org/2000/svg">
<path fill-rule="evenodd" clip-rule="evenodd" d="M75.1353 46.2558C75.1353 20.7891 58.4179 0.155598 37.7848 0.155598C17.1516 0.155598 0.434215 20.7891 0.434215 46.2558C0.434215 69.265 14.0928 88.337 31.9487 91.7983V59.5821H22.4605V46.2558H31.9487V36.0988C31.9487 24.5459 37.5212 18.1644 46.0561 18.1644C50.1436 18.1644 54.4178 19.0641 54.4178 19.0641V30.4032H49.7068C45.0681 30.4032 43.6208 33.9574 43.6208 37.6027V46.2557H53.9795L52.3229 59.582H43.6208V91.7982C61.4767 88.337 75.1353 69.2649 75.1353 46.2558L75.1353 46.2558Z" fill="white"/>
</svg>
