<svg width="68" height="84" viewBox="0 0 68 84" fill="none" xmlns="http://www.w3.org/2000/svg">
<path fill-rule="evenodd" clip-rule="evenodd" d="M60.3114 66.5308C59.1367 70.1743 56.8625 72.9812 53.8955 74.4497C49.4525 76.6246 38.9099 76.1227 34 76.1227C29.0902 76.1227 18.5325 76.6061 14.1046 74.4497C11.1527 72.9998 8.8785 70.1928 7.68871 66.5308C5.92658 61.047 6.33323 48.0347 6.33323 41.9747C6.33323 35.9147 5.94165 22.8837 7.68871 17.4186C8.86345 13.7751 11.1376 10.9682 14.1046 9.49963C18.5476 7.32471 29.0902 7.82661 34 7.82661C38.9099 7.82661 49.4676 7.34329 53.8955 9.49963C56.8474 10.9496 59.1216 13.7565 60.3114 17.4186C62.0735 22.9023 61.6669 35.9147 61.6669 41.9747C61.6669 48.0347 62.0735 61.0656 60.3114 66.5308ZM67.5107 24.7974C67.2547 18.124 66.0197 12.2127 62.0587 7.34232C58.1127 2.472 53.3234 0.947688 47.9165 0.613089C42.344 0.22272 25.6415 0.22272 20.069 0.613089C14.6772 0.929106 9.8878 2.45341 5.92679 7.32373C1.96578 12.194 0.745847 18.1054 0.474756 24.7788C0.15848 31.6568 0.15848 52.272 0.474756 59.15C0.730792 65.8235 1.96578 71.7348 5.92679 76.6051C9.8878 81.4754 14.6621 82.9997 20.069 83.3343C25.6415 83.7247 42.344 83.7247 47.9165 83.3343C53.3234 83.0183 58.1127 81.494 62.0587 76.6051C66.0046 71.7347 67.2396 65.8234 67.5107 59.15C67.827 52.272 67.827 31.6754 67.5107 24.7974V24.7974ZM56.0492 19.7413C56.0492 22.5111 54.2419 24.7232 52.0129 24.7232C49.7688 24.7232 47.9766 22.4925 47.9766 19.7413C47.9766 16.9901 49.7839 14.7595 52.0129 14.7595C54.2419 14.7595 56.0492 16.9901 56.0492 19.7413ZM34.0001 55.8613C27.81 55.8613 22.7496 49.634 22.7496 41.9753C22.7496 34.3166 27.795 28.0893 34.0001 28.0893C40.2052 28.0893 45.2505 34.3166 45.2505 41.9753C45.2505 49.634 40.1901 55.8613 34.0001 55.8613ZM34.0001 20.6162C24.4214 20.6162 16.6952 30.1523 16.6952 41.975C16.6952 53.7976 24.4214 63.3338 34.0001 63.3338C43.5788 63.3338 51.3051 53.7976 51.3051 41.975C51.3051 30.1523 43.5788 20.6162 34.0001 20.6162Z" fill="white"/>
</svg>
