<svg width="68" height="84" viewBox="0 0 68 84" fill="none" xmlns="http://www.w3.org/2000/svg">
<path fill-rule="evenodd" clip-rule="evenodd" d="M58.3987 71.7182H48.3983V52.3856C48.3983 47.7755 48.323 41.8456 43.2022 41.8456C37.9912 41.8456 37.193 46.8647 37.193 52.051V71.7182H27.1925V31.9748H36.7863V37.4029H36.9219C38.2623 34.2799 41.5305 30.9896 46.3952 30.9896C56.5161 30.9896 58.3987 39.2246 58.3987 49.9319V71.7182ZM15.912 26.547C12.704 26.547 10.1136 23.3311 10.1136 19.3902C10.1136 15.4493 12.704 12.2334 15.912 12.2334C19.1049 12.2334 21.7104 15.4493 21.7104 19.3902C21.7104 23.3496 19.12 26.547 15.912 26.547H15.912ZM20.9121 71.7178H10.9117V31.9745H20.9271V71.7178H20.9121ZM63.1728 0.335938H5.32401C2.6733 0.335938 0.519592 3.03134 0.519592 6.3402V77.6106C0.519592 80.9194 2.6733 83.6148 5.32401 83.6148H63.1728C65.8235 83.6148 67.9923 80.9194 67.9923 77.6106V6.3402C67.9923 3.03136 65.8235 0.335938 63.1728 0.335938Z" fill="#0C0707"/>
</svg>
