<svg width="68" height="84" viewBox="0 0 68 84" fill="none" xmlns="http://www.w3.org/2000/svg">
<path fill-rule="evenodd" clip-rule="evenodd" d="M58.3986 71.7182H48.3981V52.3856C48.3981 47.7755 48.3228 41.8456 43.2021 41.8456C37.9911 41.8456 37.1928 46.8647 37.1928 52.051V71.7182H27.1924V31.9748H36.7862V37.4029H36.9218C38.2622 34.2799 41.5304 30.9896 46.395 30.9896C56.516 30.9896 58.3986 39.2246 58.3986 49.9319V71.7182ZM15.9119 26.547C12.7039 26.547 10.1134 23.3311 10.1134 19.3902C10.1134 15.4493 12.7039 12.2334 15.9119 12.2334C19.1048 12.2334 21.7103 15.4493 21.7103 19.3902C21.7103 23.3496 19.1198 26.547 15.9119 26.547H15.9119ZM20.912 71.7178H10.9115V31.9745H20.927V71.7178H20.912ZM63.1727 0.335938H5.32389C2.67318 0.335938 0.51947 3.03134 0.51947 6.3402V77.6106C0.51947 80.9194 2.67318 83.6148 5.32389 83.6148H63.1727C65.8234 83.6148 67.9922 80.9194 67.9922 77.6106V6.3402C67.9922 3.03136 65.8234 0.335938 63.1727 0.335938Z" fill="#FFFCFC"/>
</svg>
